<svg width="1321" height="744" viewBox="0 0 1321 744" fill="none" xmlns="http://www.w3.org/2000/svg">
<g clip-path="url(#clip0_13_1662)">
<path d="M1321 0H0V744H1321V0Z" fill="#1E40AF"/>
<path d="M489.183 348.578C598.998 348.578 688.021 259.443 688.021 149.489C688.021 39.5352 598.998 -49.6 489.183 -49.6C379.368 -49.6 290.345 39.5352 290.345 149.489C290.345 259.443 379.368 348.578 489.183 348.578Z" fill="#3B82F6"/>
<path d="M137.604 662.711C185.862 662.711 224.983 623.541 224.983 575.222C224.983 526.904 185.862 487.733 137.604 487.733C89.3463 487.733 50.2255 526.904 50.2255 575.222C50.2255 623.541 89.3463 662.711 137.604 662.711Z" fill="#3B82F6"/>
<path d="M1249.45 830.111C1341.4 830.111 1415.95 755.472 1415.95 663.4C1415.95 571.328 1341.4 496.689 1249.45 496.689C1157.49 496.689 1082.94 571.328 1082.94 663.4C1082.94 755.472 1157.49 830.111 1249.45 830.111Z" fill="#3B82F6"/>
</g>
<defs>
<clipPath id="clip0_13_1662">
<rect width="1321" height="744" fill="white"/>
</clipPath>
</defs>
</svg>
