<svg id="visual" viewBox="0 0 1920 1080" width="1920" height="1080" xmlns="http://www.w3.org/2000/svg" xmlns:xlink="http://www.w3.org/1999/xlink" version="1.1"><rect width="1920" height="1080" fill="#1E40AF"></rect><g><g transform="translate(954 690)"><path d="M195 -62C223 23 195.6 127.3 126.8 178.2C57.9 229.2 -52.5 226.7 -122 174.7C-191.6 122.6 -220.2 20.9 -193 -62.9C-165.8 -146.6 -82.9 -212.5 0.3 -212.6C83.5 -212.6 166.9 -147 195 -62Z" stroke="#3B82F6" fill="none" stroke-width="20"></path></g><g transform="translate(173 420)"><path d="M140 -48.4C155.5 2.1 124.1 64.9 75.4 99.2C26.6 133.6 -39.6 139.6 -82.6 109.3C-125.7 79.1 -145.7 12.6 -128.1 -40.8C-110.5 -94.3 -55.2 -134.7 3.5 -135.8C62.3 -137 124.6 -98.9 140 -48.4Z" stroke="#3B82F6" fill="none" stroke-width="20"></path></g><g transform="translate(783 50)"><path d="M90.3 -33.4C101.3 4.5 83.6 47.6 51.4 71.1C19.2 94.6 -27.6 98.4 -56.8 77.4C-86 56.4 -97.6 10.4 -85.2 -29.3C-72.8 -69.1 -36.4 -102.7 1.6 -103.3C39.7 -103.8 79.3 -71.2 90.3 -33.4Z" stroke="#3B82F6" fill="none" stroke-width="20"></path></g><g transform="translate(1504 888)"><path d="M89.6 -29.5C102.6 11 90.4 59.4 60 81.2C29.5 103 -19.3 98.3 -51.1 74.3C-82.9 50.2 -97.8 6.8 -86.5 -31.4C-75.2 -69.7 -37.6 -102.7 0.3 -102.9C38.3 -103 76.5 -70.1 89.6 -29.5Z" stroke="#3B82F6" fill="none" stroke-width="20"></path></g></g></svg>