<svg id="visual" viewBox="0 0 1920 1080" width="1920" height="1080" xmlns="http://www.w3.org/2000/svg" xmlns:xlink="http://www.w3.org/1999/xlink" version="1.1"><rect x="0" y="0" width="1920" height="1080" fill="#1E40AF"></rect><path d="M0 584L45.7 585.7C91.3 587.3 182.7 590.7 274.2 606C365.7 621.3 457.3 648.7 548.8 649.2C640.3 649.7 731.7 623.3 823 617C914.3 610.7 1005.7 624.3 1097 618.2C1188.3 612 1279.7 586 1371.2 592.3C1462.7 598.7 1554.3 637.3 1645.8 645.7C1737.3 654 1828.7 632 1874.3 621L1920 610L1920 1081L1874.3 1081C1828.7 1081 1737.3 1081 1645.8 1081C1554.3 1081 1462.7 1081 1371.2 1081C1279.7 1081 1188.3 1081 1097 1081C1005.7 1081 914.3 1081 823 1081C731.7 1081 640.3 1081 548.8 1081C457.3 1081 365.7 1081 274.2 1081C182.7 1081 91.3 1081 45.7 1081L0 1081Z" fill="#3b82f6"></path><path d="M0 665L45.7 671.7C91.3 678.3 182.7 691.7 274.2 707.3C365.7 723 457.3 741 548.8 732.2C640.3 723.3 731.7 687.7 823 668C914.3 648.3 1005.7 644.7 1097 649.8C1188.3 655 1279.7 669 1371.2 672.5C1462.7 676 1554.3 669 1645.8 668.7C1737.3 668.3 1828.7 674.7 1874.3 677.8L1920 681L1920 1081L1874.3 1081C1828.7 1081 1737.3 1081 1645.8 1081C1554.3 1081 1462.7 1081 1371.2 1081C1279.7 1081 1188.3 1081 1097 1081C1005.7 1081 914.3 1081 823 1081C731.7 1081 640.3 1081 548.8 1081C457.3 1081 365.7 1081 274.2 1081C182.7 1081 91.3 1081 45.7 1081L0 1081Z" fill="#3371e5"></path><path d="M0 828L45.7 822.8C91.3 817.7 182.7 807.3 274.2 798.5C365.7 789.7 457.3 782.3 548.8 777.7C640.3 773 731.7 771 823 772.5C914.3 774 1005.7 779 1097 774.2C1188.3 769.3 1279.7 754.7 1371.2 763.2C1462.7 771.7 1554.3 803.3 1645.8 803.7C1737.3 804 1828.7 773 1874.3 757.5L1920 742L1920 1081L1874.3 1081C1828.7 1081 1737.3 1081 1645.8 1081C1554.3 1081 1462.7 1081 1371.2 1081C1279.7 1081 1188.3 1081 1097 1081C1005.7 1081 914.3 1081 823 1081C731.7 1081 640.3 1081 548.8 1081C457.3 1081 365.7 1081 274.2 1081C182.7 1081 91.3 1081 45.7 1081L0 1081Z" fill="#2c60d3"></path><path d="M0 848L45.7 860.3C91.3 872.7 182.7 897.3 274.2 893.8C365.7 890.3 457.3 858.7 548.8 847.3C640.3 836 731.7 845 823 863.3C914.3 881.7 1005.7 909.3 1097 920.5C1188.3 931.7 1279.7 926.3 1371.2 907.7C1462.7 889 1554.3 857 1645.8 847.5C1737.3 838 1828.7 851 1874.3 857.5L1920 864L1920 1081L1874.3 1081C1828.7 1081 1737.3 1081 1645.8 1081C1554.3 1081 1462.7 1081 1371.2 1081C1279.7 1081 1188.3 1081 1097 1081C1005.7 1081 914.3 1081 823 1081C731.7 1081 640.3 1081 548.8 1081C457.3 1081 365.7 1081 274.2 1081C182.7 1081 91.3 1081 45.7 1081L0 1081Z" fill="#2550c1"></path><path d="M0 928L45.7 940.2C91.3 952.3 182.7 976.7 274.2 978.8C365.7 981 457.3 961 548.8 949.7C640.3 938.3 731.7 935.7 823 935.2C914.3 934.7 1005.7 936.3 1097 948.2C1188.3 960 1279.7 982 1371.2 979.7C1462.7 977.3 1554.3 950.7 1645.8 953.3C1737.3 956 1828.7 988 1874.3 1004L1920 1020L1920 1081L1874.3 1081C1828.7 1081 1737.3 1081 1645.8 1081C1554.3 1081 1462.7 1081 1371.2 1081C1279.7 1081 1188.3 1081 1097 1081C1005.7 1081 914.3 1081 823 1081C731.7 1081 640.3 1081 548.8 1081C457.3 1081 365.7 1081 274.2 1081C182.7 1081 91.3 1081 45.7 1081L0 1081Z" fill="#1e40af"></path></svg>