<svg width="24" height="24" viewBox="0 0 24 24" fill="none" xmlns="http://www.w3.org/2000/svg">
<path d="M20.9999 2.99572H2.99988C2.17145 2.99572 1.49988 3.66729 1.49988 4.49572V16.4957C1.49988 17.3241 2.17145 17.9957 2.99988 17.9957H20.9999C21.8283 17.9957 22.4999 17.3241 22.4999 16.4957V4.49572C22.4999 3.66729 21.8283 2.99572 20.9999 2.99572Z" stroke="#666666" stroke-width="1.5" stroke-linejoin="round"/>
<path d="M14.2499 21.0002L13.8749 18.0002H10.1249L9.74991 21.0002H14.2499Z" fill="#666666" stroke="#666666" stroke-width="1.5" stroke-linecap="round" stroke-linejoin="round"/>
<path d="M17.2499 20.9975H6.74994" stroke="#666666" stroke-width="1.5" stroke-linecap="round" stroke-linejoin="round"/>
<path d="M1.49988 14.2457V16.4957C1.50099 16.8932 1.65938 17.2741 1.94045 17.5552C2.22151 17.8362 2.6024 17.9946 2.99988 17.9957H20.9999C21.3974 17.9946 21.7782 17.8362 22.0593 17.5552C22.3404 17.2741 22.4988 16.8932 22.4999 16.4957V14.2457H1.49988ZM11.9999 17.2457C11.8515 17.2457 11.7065 17.2017 11.5832 17.1193C11.4599 17.0369 11.3637 16.9198 11.307 16.7827C11.2502 16.6457 11.2354 16.4949 11.2643 16.3494C11.2932 16.2039 11.3647 16.0703 11.4695 15.9654C11.5744 15.8605 11.7081 15.7891 11.8536 15.7601C11.999 15.7312 12.1498 15.746 12.2869 15.8028C12.4239 15.8596 12.5411 15.9557 12.6235 16.079C12.7059 16.2024 12.7499 16.3474 12.7499 16.4957C12.7499 16.6946 12.6709 16.8854 12.5302 17.0261C12.3896 17.1667 12.1988 17.2457 11.9999 17.2457Z" fill="#666666"/>
</svg>
