<svg width="8" height="8" viewBox="0 0 8 8" fill="none" xmlns="http://www.w3.org/2000/svg">
<path d="M1.16999 7.58035C0.979985 7.58035 0.789985 7.51035 0.639985 7.36035C0.349985 7.07035 0.349985 6.59035 0.639985 6.30035L6.29999 0.640352C6.58999 0.350352 7.06998 0.350352 7.35998 0.640352C7.64998 0.930352 7.64998 1.41035 7.35998 1.70035L1.69998 7.36035C1.55998 7.51035 1.35999 7.58035 1.16999 7.58035Z" fill="#fff"/>
<path d="M6.82999 7.58035C6.63999 7.58035 6.44999 7.51035 6.29999 7.36035L0.639985 1.70035C0.349985 1.41035 0.349985 0.930352 0.639985 0.640352C0.929985 0.350352 1.40998 0.350352 1.69998 0.640352L7.35998 6.30035C7.64998 6.59035 7.64998 7.07035 7.35998 7.36035C7.20998 7.51035 7.01999 7.58035 6.82999 7.58035Z" fill="#fff"/>
</svg>
